# xmcd
# Track frame offsets:
# 150
# 16790
# 29552
# 46777
# 63437
# 80652
# 96017
# 107882
# 123925
# 141040
# 157075
# 178187
# 194675
# 213215
# 232752
# 246342
# 263772
# 281497
# 297850
# 311512
#
# Disc length: 4379 seconds
# Revision: 0
# Processed by: cddbd v1.5.2PL0 Copyright (c) Steve Scherf et al.
# Submitted via: VisiTrax 2.10.3.257 - For more info visit www.synapsa.com
#
DISCID=1c111914
DTITLE=Various Artist - Warner Music Country 2
DYEAR=1998
DGENRE=
TTITLE0=Colin Buchanan - Sons of the Country
TTITLE1=George Fox - Lime Ricky
TTITLE2=Dead Ringer Band - Loop around Atlanta
TTITLE3=Dwight Yoakam - North to Alaska
TTITLE4=Wayne Law - Two wrongs made it right
TTITLE5=Paul Brandt - What's come over you
TTITLE6=Greg Champion - Longyard on a Saturday Night
TTITLE7=John Michael Montgomery - Angel in my Eyes
TTITLE8=The Ranch - Freedoms finally mine
TTITLE9=Neil McCoy - Broken record
TTITLE10=Lyndsay Hammond - Red dust trails
TTITLE11=Brady Seals - The Truth
TTITLE12=Lila McCann - Yippy Ky Yay
TTITLE13=Cam Fletcher - Wrong reasons
TTITLE14=The Cox Family - I'm thinking tonight of my Blue Eyes
TTITLE15=Bryan White - One small miracle
TTITLE16=Tracey Lawrence - The coast is clear
TTITLE17=Michael Peterson - From here to eternity
TTITLE18=Little Texas - Your mama won't let me
TTITLE19=Collie, Mark and Jeff Wood &Aaron Tippin - Fire down below
EXTD=
EXTT0=
EXTT1=
EXTT2=
EXTT3=
EXTT4=
EXTT5=
EXTT6=
EXTT7=
EXTT8=
EXTT9=
EXTT10=
EXTT11=
EXTT12=
EXTT13=
EXTT14=
EXTT15=
EXTT16=
EXTT17=
EXTT18=
EXTT19=
PLAYORDER=
